<svg version="1.1" id="Layer_1" xmlns="http://www.w3.org/2000/svg" xmlns:xlink="http://www.w3.org/1999/xlink" x="0px" y="0px"
	 width="200px" height="200px" viewBox="0 0 1000 1000" enable-background="new 0 0 1000 1000" xml:space="preserve">
<path fill="none" stroke="#F2F2F2" stroke-miterlimit="10" d="M147.5,439.355"/>
<g>
	<g>
		<g>
			<path fill="#41DBE1" d="M170.915,505.773c19.439-33.677,38.878-67.353,58.317-101.028
				c30.347-52.573,60.694-105.146,91.042-157.72c6.163-10.678,12.327-21.356,18.491-32.035c-3.453,1.981-6.907,3.962-10.361,5.943
				c28.476,0,56.951,0,85.428,0c15.477,0,15.477-24,0-24c-28.477,0-56.952,0-85.428,0c-4.21,0-8.251,2.288-10.362,5.943
				c-19.439,33.676-38.878,67.352-58.317,101.028c-30.347,52.573-60.694,105.146-91.042,157.72
				c-6.164,10.678-12.328,21.356-18.492,32.035C142.44,507.09,163.182,519.17,170.915,505.773L170.915,505.773z"/>
		</g>
	</g>
	<g>
		<g>
			<path fill="#41DBE1" d="M253.204,636.216c-24.828-43.012-49.656-86.022-74.484-129.035c-2.601-4.507-5.203-9.013-7.804-13.52
				c-7.733-13.396-28.475-1.315-20.724,12.113c24.828,43.012,49.656,86.022,74.484,129.034c2.602,4.508,5.203,9.015,7.804,13.521
				C240.213,661.725,260.955,649.645,253.204,636.216L253.204,636.216z"/>
		</g>
	</g>
	<g>
		<g>
			<path fill="#41DBE1" d="M407.241,778.5c-26.279,0-52.559,0-78.837,0c3.454,1.981,6.908,3.962,10.361,5.943
				c-24.934-43.196-49.868-86.393-74.802-129.588c-3.586-6.214-7.173-12.428-10.759-18.641
				c-7.733-13.396-28.475-1.314-20.724,12.113c24.934,43.195,49.868,86.392,74.802,129.588c3.586,6.213,7.173,12.427,10.759,18.64
				c2.11,3.656,6.151,5.943,10.362,5.943c26.278,0,52.558,0,78.837,0C422.718,802.5,422.718,778.5,407.241,778.5L407.241,778.5z"/>
		</g>
	</g>
	<g>
		<g>
			<path fill="#41DBE1" d="M653.741,214.991c19.438,33.676,38.878,67.352,58.315,101.028
				c30.349,52.573,60.695,105.146,91.042,157.72c6.164,10.678,12.328,21.355,18.492,32.034c0-4.037,0-8.075,0-12.113
				c-19.438,33.676-38.879,67.352-58.316,101.027c-30.349,52.573-60.694,105.146-91.042,157.721
				c-6.164,10.679-12.328,21.356-18.491,32.035c3.453-1.981,6.907-3.963,10.36-5.943c-45.139,0-90.275,0-135.414,0
				c-40.482,0-80.965,0-121.447,0c-15.478,0-15.478,24,0,24c45.138,0,90.276,0,135.416,0c40.48,0,80.964,0,121.445,0
				c4.211,0,8.251-2.287,10.361-5.943c19.439-33.676,38.878-67.352,58.317-101.027c30.348-52.573,60.693-105.146,91.042-157.721
				c6.152-10.659,12.307-21.319,18.46-31.979c3.936-6.818-0.039-12.29-3.271-17.89c-3.811-6.603-7.622-13.205-11.434-19.809
				c-29.668-51.396-59.336-102.792-89.003-154.188c-21.276-36.86-42.555-73.719-63.83-110.579c-0.094-0.162-0.188-0.325-0.281-0.487
				C666.731,189.481,645.989,201.562,653.741,214.991L653.741,214.991z"/>
		</g>
	</g>
	<g>
		<g>
			<path fill="#41DBE1" d="M664.104,196.934c-45.7,0-91.4,0-137.102,0c-37.724,0-75.447,0-113.171,0c-15.478,0-15.478,24,0,24
				c45.7,0,91.4,0,137.101,0c37.725,0,75.447,0,113.172,0C679.579,220.934,679.579,196.934,664.104,196.934L664.104,196.934z"/>
		</g>
	</g>
</g>
<path fill="none" stroke="#41DBE1" stroke-width="8" stroke-miterlimit="10" d="M189.887,448.899"/>
<path fill="none" stroke="#41DBE1" stroke-width="8" stroke-miterlimit="10" d="M398.146,496.312"/>
<g>
	<g>
		<g>
			<path fill="#41DBE1" d="M191.345,505.773c19.439-33.677,38.878-67.353,58.317-101.028
				c30.347-52.573,60.694-105.146,91.042-157.72c6.164-10.678,12.328-21.356,18.492-32.035c-3.454,1.981-6.908,3.962-10.362,5.943
				c28.477,0,56.952,0,85.428,0c15.478,0,15.478-24,0-24c-28.476,0-56.951,0-85.428,0c-4.21,0-8.251,2.288-10.362,5.943
				c-19.438,33.676-38.877,67.352-58.316,101.028c-30.347,52.573-60.694,105.146-91.042,157.72
				c-6.164,10.678-12.328,21.356-18.492,32.035C162.87,507.09,183.612,519.17,191.345,505.773L191.345,505.773z"/>
		</g>
	</g>
	<g>
		<g>
			<path fill="#41DBE1" d="M273.633,636.216c-24.828-43.012-49.656-86.022-74.484-129.035c-2.601-4.507-5.203-9.013-7.804-13.52
				c-7.733-13.396-28.475-1.315-20.724,12.113c24.828,43.012,49.656,86.022,74.484,129.034c2.602,4.508,5.203,9.015,7.804,13.521
				C260.643,661.725,281.385,649.645,273.633,636.216L273.633,636.216z"/>
		</g>
	</g>
	<g>
		<g>
			<path fill="#41DBE1" d="M427.67,778.5c-26.279,0-52.558,0-78.837,0c3.454,1.981,6.908,3.962,10.362,5.943
				c-24.935-43.196-49.868-86.393-74.802-129.588c-3.586-6.214-7.173-12.428-10.759-18.641
				c-7.733-13.396-28.475-1.314-20.724,12.113c24.934,43.195,49.868,86.392,74.802,129.588c3.586,6.213,7.173,12.427,10.759,18.64
				c2.11,3.656,6.151,5.943,10.362,5.943c26.279,0,52.558,0,78.837,0C443.146,802.5,443.146,778.5,427.67,778.5L427.67,778.5z"/>
		</g>
	</g>
	<g>
		<g>
			<path fill="#41DBE1" d="M674.171,214.991c19.438,33.676,38.878,67.352,58.316,101.028
				c30.348,52.573,60.694,105.146,91.042,157.72c6.164,10.678,12.328,21.355,18.492,32.034c0-4.037,0-8.075,0-12.113
				c-19.439,33.676-38.88,67.352-58.317,101.027c-30.349,52.573-60.694,105.146-91.042,157.721
				c-6.164,10.679-12.328,21.356-18.491,32.035c3.453-1.981,6.907-3.963,10.361-5.943c-45.14,0-90.276,0-135.415,0
				c-40.482,0-80.965,0-121.447,0c-15.477,0-15.477,24,0,24c45.139,0,90.277,0,135.415,0c40.482,0,80.965,0,121.447,0
				c4.211,0,8.251-2.287,10.36-5.943c19.439-33.676,38.879-67.352,58.317-101.027c30.349-52.573,60.694-105.146,91.042-157.721
				c6.153-10.659,12.307-21.319,18.46-31.979c3.937-6.818-0.039-12.29-3.271-17.89c-3.812-6.603-7.622-13.205-11.435-19.809
				c-29.668-51.396-59.336-102.792-89.003-154.188c-21.275-36.86-42.554-73.719-63.83-110.579c-0.094-0.162-0.188-0.325-0.281-0.487
				C687.161,189.481,666.419,201.562,674.171,214.991L674.171,214.991z"/>
		</g>
	</g>
	<g>
		<g>
			<path fill="#41DBE1" d="M684.532,196.934c-45.7,0-91.4,0-137.102,0c-37.724,0-75.446,0-113.171,0c-15.477,0-15.477,24,0,24
				c45.7,0,91.4,0,137.102,0c37.724,0,75.446,0,113.171,0C700.009,220.934,700.009,196.934,684.532,196.934L684.532,196.934z"/>
		</g>
	</g>
</g>
<text transform="matrix(1 0 0 1 287.1919 570.9961)" fill="#41DBE1" font-family="'RobotoMono-Bold'" font-size="242.3314">rdx</text>
<text transform="matrix(1 0 0 1 295.7598 570.9961)" fill="#41DBE1" font-family="'RobotoMono-Bold'" font-size="242.3314">rdx</text>
</svg>
