<?xml version="1.0" encoding="UTF-8" standalone="no"?>
<!DOCTYPE svg PUBLIC "-//W3C//DTD SVG 1.1//EN" "http://www.w3.org/Graphics/SVG/1.1/DTD/svg11.dtd">
<svg width="100%" height="100%" viewBox="0 0 3522 3058" version="1.1" xmlns="http://www.w3.org/2000/svg" xmlns:xlink="http://www.w3.org/1999/xlink" xml:space="preserve" xmlns:serif="http://www.serif.com/" style="fill-rule:evenodd;clip-rule:evenodd;stroke-linecap:round;stroke-linejoin:round;stroke-miterlimit:1.5;">
    <g transform="matrix(1,0,0,1,-2683.8,-4334.03)">
        <g transform="matrix(1,0,0,1,438.508,718.815)">
            <g transform="matrix(1,0,0,1,-807.864,54.5162)">
                <g transform="matrix(0.22011,0,0,0.22011,3684.5,4777.54)">
                    <path d="M5629.88,5162.28C6668.1,5162.28 7509.74,4320.64 7509.74,3282.42C7509.74,4320.64 6668.1,5162.28 5629.88,5162.28Z" style="fill:none;stroke:black;stroke-width:378.6px;"/>
                </g>
                <g transform="matrix(1.68682e-17,0.275479,-0.275479,1.68682e-17,5825.2,3845.04)">
                    <path d="M5629.88,5162.28C6668.1,5162.28 7509.74,4320.64 7509.74,3282.42C7509.74,3444.64 7489.19,3602.06 7450.56,3752.22C7241.93,4563.1 6505.88,5162.28 5629.88,5162.28Z" style="fill:none;stroke:black;stroke-width:302.5px;"/>
                </g>
                <g transform="matrix(-0.344775,4.22228e-17,-4.22228e-17,-0.344775,6992.28,6524.24)">
                    <path d="M5629.88,5162.28C6668.1,5162.28 7509.74,4320.64 7509.74,3282.42C7509.74,4320.64 6668.1,5162.28 5629.88,5162.28Z" style="fill:none;stroke:black;stroke-width:241.7px;"/>
                </g>
                <g transform="matrix(-7.92659e-17,-0.431503,0.431503,-7.92659e-17,3639.13,7984.89)">
                    <path d="M5629.88,5162.28C6668.1,5162.28 7509.74,4320.64 7509.74,3282.42C7509.74,4320.64 6668.1,5162.28 5629.88,5162.28Z" style="fill:none;stroke:black;stroke-width:193.12px;"/>
                </g>
                <g transform="matrix(0.540048,-1.32274e-16,1.32274e-16,0.540048,1811.05,3788.26)">
                    <path d="M5629.88,5162.28C6668.1,5162.28 7509.74,4320.64 7509.74,3282.42C7509.74,4320.64 6668.1,5162.28 5629.88,5162.28Z" style="fill:none;stroke:black;stroke-width:154.31px;"/>
                </g>
                <g transform="matrix(2.06934e-16,0.675896,-0.675896,2.06934e-16,7063.34,1500.33)">
                    <path d="M5629.88,5162.28C6668.1,5162.28 7509.74,4320.64 7509.74,3282.42C7509.74,4320.64 6668.1,5162.28 5629.88,5162.28Z" style="fill:none;stroke:black;stroke-width:123.29px;"/>
                </g>
            </g>
            <g transform="matrix(-1.08093,0,0,-1.13935,9588.56,11763.3)">
                <g transform="matrix(0.22011,0,0,0.22011,3684.5,4777.54)">
                    <path d="M5629.88,5162.28C6668.1,5162.28 7509.74,4320.64 7509.74,3282.42C7509.74,4320.64 6668.1,5162.28 5629.88,5162.28Z" style="fill:none;stroke:black;stroke-width:340.92px;"/>
                </g>
                <g transform="matrix(1.68682e-17,0.275479,-0.275479,1.68682e-17,5825.2,3845.04)">
                    <path d="M5629.88,5162.28C6668.1,5162.28 7509.74,4320.64 7509.74,3282.42C7509.74,3444.64 7489.19,3602.06 7450.56,3752.22C7241.93,4563.1 6505.88,5162.28 5629.88,5162.28Z" style="fill:none;stroke:black;stroke-width:272.4px;"/>
                </g>
                <g transform="matrix(-0.344775,4.22228e-17,-4.22228e-17,-0.344775,6992.28,6524.24)">
                    <path d="M5629.88,5162.28C6668.1,5162.28 7509.74,4320.64 7509.74,3282.42C7509.74,4320.64 6668.1,5162.28 5629.88,5162.28Z" style="fill:none;stroke:black;stroke-width:217.65px;"/>
                </g>
                <g transform="matrix(-7.92659e-17,-0.431503,0.431503,-7.92659e-17,3639.13,7984.89)">
                    <path d="M5629.88,5162.28C6668.1,5162.28 7509.74,4320.64 7509.74,3282.42C7509.74,4320.64 6668.1,5162.28 5629.88,5162.28Z" style="fill:none;stroke:black;stroke-width:173.9px;"/>
                </g>
                <g transform="matrix(0.540048,-1.32274e-16,1.32274e-16,0.540048,1811.05,3788.26)">
                    <path d="M5629.88,5162.28C6668.1,5162.28 7509.74,4320.64 7509.74,3282.42C7509.74,4320.64 6668.1,5162.28 5629.88,5162.28Z" style="fill:none;stroke:black;stroke-width:138.95px;"/>
                </g>
                <g transform="matrix(2.06934e-16,0.675896,-0.675896,2.06934e-16,7063.34,1500.33)">
                    <path d="M5629.88,5162.28C6668.1,5162.28 7509.74,4320.64 7509.74,3282.42C7509.74,4320.64 6668.1,5162.28 5629.88,5162.28Z" style="fill:none;stroke:black;stroke-width:111.02px;"/>
                </g>
            </g>
            <g transform="matrix(1,0,0,1,-783.46,321.716)">
                <g transform="matrix(0.404194,0,0,0.404194,1142.35,4459.86)">
                    <path d="M5541.99,3679.06C5541.99,3632.81 5504.44,3595.26 5458.19,3595.26L4750.85,3595.26C4704.6,3595.26 4667.05,3632.81 4667.05,3679.06C4667.05,3725.31 4704.6,3762.86 4750.85,3762.86L5458.19,3762.86C5504.44,3762.86 5541.99,3725.31 5541.99,3679.06Z"/>
                </g>
                <g transform="matrix(2.47497e-17,0.404194,-0.404194,2.47497e-17,4692.62,3883.69)">
                    <path d="M5541.99,3679.06C5541.99,3632.81 5504.44,3595.26 5458.19,3595.26L4750.85,3595.26C4704.6,3595.26 4667.05,3632.81 4667.05,3679.06C4667.05,3725.31 4704.6,3762.86 4750.85,3762.86L5458.19,3762.86C5504.44,3762.86 5541.99,3725.31 5541.99,3679.06Z"/>
                </g>
                <circle cx="3205.57" cy="5946.91" r="33.872" style="fill:white;"/>
            </g>
            <g transform="matrix(1,0,0,1,839.246,-2154.88)">
                <g transform="matrix(0.404194,0,0,0.404194,1142.35,4459.86)">
                    <path d="M5541.99,3679.06C5541.99,3632.81 5504.44,3595.26 5458.19,3595.26L4750.85,3595.26C4704.6,3595.26 4667.05,3632.81 4667.05,3679.06C4667.05,3725.31 4704.6,3762.86 4750.85,3762.86L5458.19,3762.86C5504.44,3762.86 5541.99,3725.31 5541.99,3679.06Z"/>
                </g>
                <g transform="matrix(2.47497e-17,0.404194,-0.404194,2.47497e-17,4692.62,3883.69)">
                    <path d="M5541.99,3679.06C5541.99,3632.81 5504.44,3595.26 5458.19,3595.26L4750.85,3595.26C4704.6,3595.26 4667.05,3632.81 4667.05,3679.06C4667.05,3725.31 4704.6,3762.86 4750.85,3762.86L5458.19,3762.86C5504.44,3762.86 5541.99,3725.31 5541.99,3679.06Z"/>
                </g>
                <circle cx="3205.57" cy="5946.91" r="33.872" style="fill:white;"/>
            </g>
            <g transform="matrix(0.734181,0,0,0.734181,3133.11,2140.25)">
                <g transform="matrix(0.404194,0,0,0.404194,1142.35,4459.86)">
                    <path d="M5541.99,3679.06C5541.99,3632.81 5504.44,3595.26 5458.19,3595.26L4750.85,3595.26C4704.6,3595.26 4667.05,3632.81 4667.05,3679.06C4667.05,3725.31 4704.6,3762.86 4750.85,3762.86L5458.19,3762.86C5504.44,3762.86 5541.99,3725.31 5541.99,3679.06Z"/>
                </g>
                <g transform="matrix(2.47497e-17,0.404194,-0.404194,2.47497e-17,4692.62,3883.69)">
                    <path d="M5541.99,3679.06C5541.99,3632.81 5504.44,3595.26 5458.19,3595.26L4750.85,3595.26C4704.6,3595.26 4667.05,3632.81 4667.05,3679.06C4667.05,3725.31 4704.6,3762.86 4750.85,3762.86L5458.19,3762.86C5504.44,3762.86 5541.99,3725.31 5541.99,3679.06Z"/>
                </g>
                <circle cx="3205.57" cy="5946.91" r="33.872" style="fill:white;"/>
            </g>
            <g transform="matrix(1,0,0,1,-791.054,5.17127)">
                <circle cx="4977.31" cy="5533.11" r="145.91" style="fill:white;stroke:black;stroke-width:104.17px;"/>
            </g>
        </g>
    </g>
</svg>
