<?xml version="1.0" encoding="UTF-8" standalone="no"?>
<!DOCTYPE svg PUBLIC "-//W3C//DTD SVG 1.1//EN" "http://www.w3.org/Graphics/SVG/1.1/DTD/svg11.dtd">
<svg width="100%" height="100%" viewBox="0 0 7413 4962" version="1.1" xmlns="http://www.w3.org/2000/svg" xmlns:xlink="http://www.w3.org/1999/xlink" xml:space="preserve" xmlns:serif="http://www.serif.com/" style="fill-rule:evenodd;clip-rule:evenodd;stroke-linecap:round;stroke-linejoin:round;stroke-miterlimit:1.5;">
    <g transform="matrix(1,0,0,1,-1220.04,-8438.37)">
        <g transform="matrix(1,0,0,1,-202.129,845.525)">
            <path d="M6823.75,11010.8L7246.73,10745.1L7376.51,10745.1C7677.37,10745.1 7953.84,10910.6 8095.97,11175.8C8382.81,11711 8834.97,12554.7 8834.97,12554.7L5946.58,12554.7L5946.58,11010.8L6823.75,11010.8Z" style="fill:rgb(201,95,95);"/>
            <path d="M3212.67,10848.3L2549.99,10486.4L2549.97,10486.4C2565.3,10404.9 2578.83,10322.6 2590.55,10244.6C2629.47,9984.61 2852.75,9792.26 3115.6,9792.26C3729.52,9792.26 4728.56,9792.26 4728.56,9792.26L4728.56,9576.92C4728.56,9576.92 5608.09,9576.92 6130.73,9576.92C6339.53,9576.92 6508.79,9746.19 6508.79,9954.99L6508.79,9954.99L5824,10520.4L3212.67,10848.3Z" style="fill:rgb(201,95,95);"/>
            <path d="M6074.94,8875.34C6074.94,8167.03 5500.75,7592.84 4792.45,7592.84L4782.21,7592.84C4438.66,7592.84 4109.18,7729.32 3866.26,7972.24C3623.33,8215.16 3486.86,8544.64 3486.86,8888.19L3486.86,10302.6L6074.94,10302.6L6074.94,8875.34Z" style="fill:rgb(238,238,238);"/>
            <path d="M4542.89,7615.14C4621.24,7600.4 4701.34,7592.84 4782.21,7592.84L4792.45,7592.84C5168.98,7592.84 5507.62,7755.11 5742.19,8013.47L5742.19,9291.08L4542.89,9291.08L4542.89,7615.14Z" style="fill:rgb(55,54,54);"/>
            <path d="M2549.97,10486.4L2549.99,10486.4L3212.67,10848.3L2994.36,11696.9L1735.42,12064.7L1735.4,12064.6C1977.61,11685.1 2287.78,11197.3 2387.04,11033.3C2454.11,10922.5 2508.58,10707.1 2549.97,10486.4Z" style="fill:rgb(203,33,33);"/>
            <g transform="matrix(1.00808,0,0,1.00808,-98.2837,-193.659)">
                <path d="M5303.86,8294.71L5553.36,8438.76L5553.36,8726.85L5303.86,8870.9L5054.36,8726.85L5054.36,8438.76L5303.86,8294.71Z" style="fill:none;stroke:black;stroke-width:18.6px;"/>
            </g>
            <g transform="matrix(1.51702,0,0,1.51702,-2843.21,-4506.45)">
                <circle cx="5289.97" cy="8587.78" r="292.135" style="fill:rgb(79,103,120);"/>
            </g>
            <path d="M3268.99,12554.7L1422.17,12554.7C1422.17,12554.7 1546.31,12360.9 1706.91,12109.3L1735.42,12064.7L2994.36,11696.9L3268.99,12554.7Z" style="fill:rgb(201,95,95);"/>
            <path d="M6508.79,9954.99L6711.35,9954.99C7007.03,9954.99 7246.73,10194.7 7246.73,10490.4L7246.73,10745.1L6823.75,11010.8L5946.58,11010.8L5824,10520.4L6508.79,9954.99Z" style="fill:rgb(179,62,62);"/>
            <path d="M3212.67,10848.3L5824,10520.4L5946.58,11010.8L5946.58,12554.7L3268.99,12554.7L2994.36,11696.9L3212.67,10848.3Z" style="fill:rgb(255,133,133);"/>
            <g transform="matrix(0.707107,-0.707107,0.707107,0.707107,-4317.28,6131.76)">
                <path d="M5309.79,8272.47C5309.79,8242.3 5297.81,8213.37 5276.47,8192.03C5255.14,8170.7 5226.2,8158.72 5196.03,8158.72C5115.66,8158.72 5008.39,8158.72 4928.02,8158.72C4897.84,8158.72 4868.91,8170.7 4847.58,8192.03C4826.24,8213.37 4814.26,8242.3 4814.26,8272.47L4814.26,8540.49C4814.26,8570.66 4826.24,8599.6 4847.58,8620.93C4868.91,8642.26 4897.84,8654.25 4928.02,8654.25C5008.39,8654.25 5115.66,8654.25 5196.03,8654.25C5226.2,8654.25 5255.14,8642.26 5276.47,8620.93C5297.81,8599.6 5309.79,8570.66 5309.79,8540.49C5309.79,8460.12 5309.79,8352.84 5309.79,8272.47Z" style="fill:rgb(218,186,17);"/>
            </g>
            <g transform="matrix(1.42263,0,0,1.42263,-961.217,-5011.61)">
                <path d="M2274.36,11858.1L2274.36,10905.9" style="fill:none;stroke:rgb(22,25,0);stroke-width:58.58px;"/>
            </g>
            <g transform="matrix(1.42263,0,0,0.895944,3644.39,1739.89)">
                <path d="M2274.36,11858.1L2274.36,10905.9" style="fill:none;stroke:rgb(22,25,0);stroke-width:70.1px;"/>
            </g>
            <g transform="matrix(1.42263,0,0,0.405836,4945.67,7014.93)">
                <path d="M2274.36,11858.1L2274.36,10905.9" style="fill:none;stroke:rgb(22,25,0);stroke-width:79.66px;"/>
            </g>
            <g transform="matrix(1,0,0,1,-87.3943,18.6369)">
                <path d="M2668.79,11460.9L2050.59,11460.9C1951.11,11460.9 1870.46,11380.2 1870.46,11280.7L1870.46,11203C1870.46,11128.1 1931.14,11067.4 2005.99,11067.4C2012.19,11067.4 2018.39,11067.4 2024.54,11067.4C2055.56,11067.4 2085.32,11055.1 2107.25,11033.2C2129.19,11011.2 2141.51,10981.5 2141.51,10950.5C2141.51,10949.4 2141.51,10948.4 2141.51,10947.3C2141.51,10905.1 2107.31,10870.9 2065.13,10870.9C2065.13,10870.9 2065.13,10870.9 2065.13,10870.9C2044.87,10870.9 2025.44,10862.9 2011.12,10848.5C1996.79,10834.2 1988.74,10814.8 1988.74,10794.5C1988.74,10719.6 1988.74,10606.1 1988.74,10531.2C1988.74,10510.9 1996.79,10491.5 2011.12,10477.1C2025.44,10462.8 2044.87,10454.8 2065.13,10454.8C2065.13,10454.8 2065.13,10454.8 2065.13,10454.8C2107.31,10454.8 2141.51,10420.6 2141.51,10378.4L2141.51,10269.6C2141.51,10170.1 2222.16,10089.4 2321.64,10089.4L2378.04,10089.4C2477.52,10089.4 2558.16,10170.1 2558.16,10269.6L2558.16,10364.7C2558.16,10388.6 2567.65,10411.5 2584.54,10428.4C2601.43,10445.3 2624.34,10454.8 2648.23,10454.8L2648.23,10454.8C2672.11,10454.8 2695.02,10464.3 2711.91,10481.1C2728.8,10498 2738.29,10520.9 2738.29,10544.8C2738.29,10614.7 2738.29,10711 2738.29,10780.9C2738.29,10804.7 2728.8,10827.6 2711.91,10844.5C2695.02,10861.4 2672.11,10870.9 2648.23,10870.9C2648.23,10870.9 2648.23,10870.9 2648.23,10870.9C2598.49,10870.9 2558.16,10911.2 2558.16,10961C2558.16,10963.7 2558.16,10966.4 2558.16,10969.2C2558.16,10995.2 2568.52,11020.2 2586.94,11038.7C2605.37,11057.1 2630.36,11067.4 2656.42,11067.4C2671.62,11067.4 2687.58,11067.4 2703.54,11067.4C2742.1,11067.4 2779.07,11082.8 2806.34,11110C2833.6,11137.3 2848.92,11174.3 2848.92,11212.8L2848.92,11280.7C2848.92,11328.5 2829.94,11374.3 2796.16,11408.1C2762.38,11441.9 2716.56,11460.9 2668.79,11460.9Z" style="fill:rgb(147,159,36);"/>
            </g>
            <g transform="matrix(1,0,0,1,4504.6,700.446)">
                <path d="M2668.79,11460.9L2050.59,11460.9C1951.11,11460.9 1870.46,11380.2 1870.46,11280.7C1870.46,11254.6 1870.46,11228 1870.46,11203C1870.46,11128.1 1931.14,11067.4 2005.99,11067.4C2012.19,11067.4 2018.39,11067.4 2024.54,11067.4C2055.56,11067.4 2085.32,11055.1 2107.25,11033.2C2129.19,11011.2 2141.51,10981.5 2141.51,10950.5L2141.51,10947.3C2141.51,10905.1 2107.31,10870.9 2065.13,10870.9C2065.13,10870.9 2065.13,10870.9 2065.13,10870.9C2044.87,10870.9 2025.44,10862.9 2011.12,10848.5C1996.79,10834.2 1988.74,10814.8 1988.74,10794.5C1988.74,10719.6 1988.74,10606.1 1988.74,10531.2C1988.74,10510.9 1996.79,10491.5 2011.12,10477.1C2025.44,10462.8 2044.87,10454.8 2065.13,10454.8C2065.13,10454.8 2065.13,10454.8 2065.13,10454.8C2107.31,10454.8 2141.51,10420.6 2141.51,10378.4L2141.51,10269.6C2141.51,10170.1 2222.16,10089.4 2321.64,10089.4C2340.34,10089.4 2359.34,10089.4 2378.04,10089.4C2477.52,10089.4 2558.16,10170.1 2558.16,10269.6C2558.16,10302.6 2558.16,10335.8 2558.16,10364.7C2558.16,10388.6 2567.65,10411.5 2584.54,10428.4C2601.43,10445.3 2624.34,10454.8 2648.23,10454.8C2648.23,10454.8 2648.23,10454.8 2648.23,10454.8C2672.11,10454.8 2695.02,10464.3 2711.91,10481.1C2728.8,10498 2738.29,10520.9 2738.29,10544.8C2738.29,10614.7 2738.29,10711 2738.29,10780.9C2738.29,10804.7 2728.8,10827.6 2711.91,10844.5C2695.02,10861.4 2672.11,10870.9 2648.23,10870.9L2648.23,10870.9C2598.49,10870.9 2558.16,10911.2 2558.16,10961L2558.16,10969.2C2558.16,10995.2 2568.52,11020.2 2586.94,11038.7C2605.37,11057.1 2630.36,11067.4 2656.42,11067.4C2671.62,11067.4 2687.58,11067.4 2703.54,11067.4C2742.1,11067.4 2779.07,11082.8 2806.34,11110C2833.6,11137.3 2848.92,11174.3 2848.92,11212.8C2848.92,11234.9 2848.92,11258 2848.92,11280.7C2848.92,11328.5 2829.94,11374.3 2796.16,11408.1C2762.38,11441.9 2716.56,11460.9 2668.79,11460.9Z" style="fill:rgb(187,201,61);"/>
            </g>
            <g transform="matrix(0.831678,0,0,0.831678,6215.93,1980.62)">
                <path d="M2652.2,11460.9L2067.18,11460.9C2015.01,11460.9 1964.97,11440.1 1928.08,11403.3C1891.19,11366.4 1870.46,11316.3 1870.46,11264.2C1870.46,11247.5 1870.46,11230.8 1870.46,11214.6C1870.46,11175.5 1885.96,11138.1 1913.55,11110.5C1941.14,11082.9 1978.56,11067.4 2017.58,11067.4C2017.58,11067.4 2017.58,11067.4 2017.58,11067.4C2086.03,11067.4 2141.51,11011.9 2141.51,10943.5C2141.51,10937.4 2141.51,10931.4 2141.51,10925.6C2141.51,10911.1 2135.74,10897.2 2125.48,10886.9C2115.22,10876.7 2101.3,10870.9 2086.78,10870.9C2079.74,10870.9 2072.43,10870.9 2065.13,10870.9C2044.87,10870.9 2025.44,10862.9 2011.12,10848.5C1996.79,10834.2 1988.74,10814.8 1988.74,10794.5C1988.74,10719.6 1988.74,10606.1 1988.74,10531.2C1988.74,10510.9 1996.79,10491.5 2011.12,10477.1C2025.44,10462.8 2044.87,10454.8 2065.13,10454.8L2065.13,10454.8C2107.31,10454.8 2141.51,10420.6 2141.51,10378.4L2141.51,10297.8C2141.51,10242.5 2163.46,10189.5 2202.53,10150.5C2241.6,10111.4 2294.59,10089.4 2349.84,10089.4L2357.22,10089.4C2410.51,10089.4 2461.62,10110.6 2499.31,10148.3C2536.99,10186 2558.16,10237.1 2558.16,10290.4L2558.16,10364.7C2558.16,10414.4 2598.49,10454.8 2648.22,10454.8L2648.23,10454.8C2697.97,10454.8 2738.29,10495.1 2738.29,10544.8L2738.29,10780.9C2738.29,10830.6 2697.97,10870.9 2648.23,10870.9C2642.32,10870.9 2636.4,10870.9 2630.59,10870.9C2590.59,10870.9 2558.16,10903.3 2558.16,10943.3C2558.16,10943.3 2558.16,10943.3 2558.16,10943.3C2558.16,11011.9 2613.72,11067.4 2682.25,11067.4C2685.69,11067.4 2689.14,11067.4 2692.59,11067.4C2734.05,11067.4 2773.81,11083.9 2803.13,11113.2C2832.45,11142.5 2848.92,11182.3 2848.92,11223.8C2848.92,11237.1 2848.92,11250.6 2848.92,11264.2C2848.92,11316.3 2828.19,11366.4 2791.3,11403.3C2754.41,11440.1 2704.37,11460.9 2652.2,11460.9Z" style="fill:rgb(166,176,81);"/>
            </g>
            <g transform="matrix(1,0,0,1,-63.2206,-783.993)">
                <path d="M4610.61,10106.2L4610.61,11049.9" style="fill:none;stroke:rgb(179,179,179);stroke-width:16.67px;"/>
            </g>
            <g transform="matrix(1,0,0,1,1126.79,-783.993)">
                <path d="M4610.61,10106.2L4610.61,11049.9" style="fill:none;stroke:rgb(179,179,179);stroke-width:16.67px;"/>
            </g>
        </g>
    </g>
</svg>
