<?xml version="1.0" encoding="UTF-8" standalone="no"?>
<!DOCTYPE svg PUBLIC "-//W3C//DTD SVG 1.1//EN" "http://www.w3.org/Graphics/SVG/1.1/DTD/svg11.dtd">
<svg width="100%" height="100%" viewBox="0 0 2550 2746" version="1.1" xmlns="http://www.w3.org/2000/svg" xmlns:xlink="http://www.w3.org/1999/xlink" xml:space="preserve" xmlns:serif="http://www.serif.com/" style="fill-rule:evenodd;clip-rule:evenodd;stroke-linecap:round;stroke-linejoin:round;stroke-miterlimit:1.5;">
    <g transform="matrix(1,0,0,1,-5510,-3983)">
        <g id="profile" transform="matrix(1,0,0,0.831819,-19354,3983)">
            <rect x="24864" y="0" width="2550" height="3300" style="fill:rgb(223,86,67);"/>
            <clipPath id="_clip1">
                <rect x="24864" y="0" width="2550" height="3300"/>
            </clipPath>
            <g clip-path="url(#_clip1)">
                <g transform="matrix(1,0,0,1.20218,-36,-600.486)">
                    <g transform="matrix(0.546691,0.546691,-0.821809,0.821809,27924.5,-6522.99)">
                        <path d="M7986,6122.53C7986,6045.84 7892.4,5983.57 7777.12,5983.57L7359.35,5983.57C7244.06,5983.57 7150.47,6045.84 7150.47,6122.53L7150.47,6434.04C7150.47,6510.74 7244.06,6573 7359.35,6573L7777.12,6573C7892.4,6573 7986,6510.74 7986,6434.04L7986,6122.53Z" style="fill:rgb(5,38,49);"/>
                    </g>
                    <g transform="matrix(1,0,0,1,19352,-3389)">
                        <path d="M7761,6185.86L6983.86,6963" style="fill:none;stroke:rgb(5,38,49);stroke-width:312.5px;"/>
                    </g>
                    <g transform="matrix(1,0,0,1,19116,-3625)">
                        <path d="M7761,6185.86L6983.86,6963" style="fill:none;stroke:rgb(5,38,49);stroke-width:312.5px;"/>
                    </g>
                </g>
                <g transform="matrix(1.08262,0,0,1.11859,18853.4,-4058.85)">
                    <path d="M5515,4922L6152.83,4922C6198.82,4922 6241.82,4948.57 6267.57,4992.91C6459.64,5323.56 7258,6698 7258,6698L5515,6698L5515,4922Z" style="fill:rgb(55,62,70);"/>
                </g>
                <g transform="matrix(0.930822,0,0,1.20218,19639.6,-4538.84)">
                    <path d="M6531.14,5277.17C6518.45,5249.76 6489.45,5232 6457.39,5232L5879.13,5232C5865.37,5232 5852.54,5238.44 5844.98,5249.14C5837.42,5259.83 5836.14,5273.35 5841.59,5285.11C5900.19,5411.7 6048.2,5731.44 6115.17,5876.11C6135.71,5920.48 6182.64,5949.23 6234.55,5949.23L6720.19,5949.23C6747.22,5949.23 6772.43,5936.58 6787.28,5915.56C6802.14,5894.55 6804.64,5867.99 6793.95,5844.89C6720.39,5685.99 6583.33,5389.91 6531.14,5277.17Z" style="fill:rgb(236,228,207);"/>
                </g>
                <g transform="matrix(0.757808,0,0,0.943593,20759.2,-3105.8)">
                    <path d="M6220,5287.36C6204.08,5252.96 6168.64,5230.85 6129.61,5230.98C6022.03,5231.33 5817,5232 5817,5232C5817,5232 6062.9,5763.2 6131.46,5911.3C6142.14,5934.36 6165.89,5949.17 6192.05,5949.09C6263.34,5948.86 6405.38,5948.39 6479.06,5948.15C6489.36,5948.12 6498.94,5943.06 6504.52,5934.71C6510.11,5926.36 6510.94,5915.85 6506.74,5906.78C6450.39,5785.04 6284.61,5426.92 6220,5287.36Z" style="fill:rgb(197,191,171);"/>
                </g>
                <g transform="matrix(0.930822,0,0,1.20218,19639.6,-4538.84)">
                    <path d="M5859.06,4620.02C5854.91,4611.15 5844.64,4606.2 5834.47,4608.18C5824.29,4610.15 5817,4618.5 5817,4628.18C5817,4790.14 5817,5105.42 5817,5202.7C5817,5222.03 5821.24,5241.16 5829.45,5258.91C5881.3,5370.9 6079.83,5799.76 6134.82,5918.56C6136.21,5921.56 6139.68,5923.24 6143.11,5922.58C6146.55,5921.92 6149.02,5919.11 6149.02,5915.84C6149.02,5782.68 6149.02,5294.36 6149.02,5243.69C6149.02,5240.88 6148.4,5238.1 6147.19,5235.53C6126.93,5192.25 5943.41,4800.21 5859.06,4620.02Z" style="fill:rgb(245,238,209);"/>
                </g>
                <g transform="matrix(1,0,0,1.20218,-36,-600.486)">
                    <g transform="matrix(0.817344,0,0,1,20940,-2998)">
                        <path d="M6940.03,4608.42L6634,5128.61L5971,5118" style="fill:none;stroke:rgb(234,175,56);stroke-width:228.12px;stroke-linecap:butt;"/>
                    </g>
                    <g transform="matrix(1.16122,0.0103084,-4.44613e-19,0.891441,18594.5,-2733.51)">
                        <path d="M7527,4815.67C7527,4735.82 7477.24,4671 7415.95,4671L6918.52,4671C6857.23,4671 6807.47,4735.82 6807.47,4815.67L6807.47,5963.33C6807.47,6043.18 6857.23,6108 6918.52,6108L7415.95,6108C7477.24,6108 7527,6043.18 7527,5963.33L7527,4815.67Z" style="fill:rgb(246,191,78);"/>
                    </g>
                    <g transform="matrix(0.865697,0,0,1,20690.9,-2599)">
                        <path d="M6913.93,4956.21C6913.93,4956.21 7216.85,4503.19 7354.75,4296.95C7372.51,4270.39 7401.73,4251.03 7435.98,4243.12C7470.22,4235.21 7506.7,4239.4 7537.37,4254.78C7585.33,4278.81 7629.98,4301.19 7629.98,4301.19L7088.14,5111.52C7067,5143.13 7028.28,5162.85 6986.09,5163.49L6216.09,5175.07L6211.91,4966.77L6913.93,4956.21Z" style="fill:rgb(250,196,89);"/>
                    </g>
                    <g transform="matrix(1,0,0,1,445,373)">
                        <g transform="matrix(1.87517,0,0,1.90155,14215.5,-7921.5)">
                            <path d="M5951.39,5042.02C5914.42,5029.61 5878.86,5028.49 5844,5033C5844,5033 5843.48,5083.96 5843.19,5111.86C5843.14,5117.64 5845.46,5123.19 5849.63,5127.24C5853.8,5131.29 5859.46,5133.49 5865.32,5133.35C5892.94,5132.71 5922.16,5115.61 5951.39,5107.73L5951.39,5042.02Z" style="fill:rgb(241,135,109);"/>
                        </g>
                        <g transform="matrix(0.815163,0,0,0.899207,20427.4,-2880.24)">
                            <path d="M5844,5056L5712,5056" style="fill:none;stroke:rgb(241,135,109);stroke-width:38.84px;"/>
                        </g>
                        <g transform="matrix(0.900289,0,0,1.42913,19929.9,-5434.56)">
                            <path d="M5844,5056L5712,5056" style="fill:none;stroke:rgb(241,135,109);stroke-width:27.91px;"/>
                        </g>
                        <g transform="matrix(0.961002,0,0,1.5255,19575.1,-6005.14)">
                            <path d="M5844,5056L5712,5056" style="fill:none;stroke:rgb(241,135,109);stroke-width:26.15px;"/>
                        </g>
                        <g transform="matrix(1.06982,0,0,1.69825,18939.1,-6836.89)">
                            <path d="M5844,5056L5712,5056" style="fill:none;stroke:rgb(241,135,109);stroke-width:23.49px;"/>
                        </g>
                        <g transform="matrix(1.22496,0,0,1.22496,18085.1,-4497.87)">
                            <path d="M5938.89,5137.66C5934.27,5158.86 5792.81,5182.57 5730.92,5174.69" style="fill:none;stroke:rgb(241,135,109);stroke-width:27.21px;"/>
                        </g>
                        <g transform="matrix(1,0,0,1,19424,-3384)">
                            <path d="M5648.33,5175.1L5605,5186" style="fill:none;stroke:rgb(241,135,109);stroke-width:33.33px;"/>
                        </g>
                        <g transform="matrix(1,0,0,1,19424,-3384)">
                            <path d="M5625.95,5133.45L5579,5145" style="fill:none;stroke:rgb(241,135,109);stroke-width:33.33px;"/>
                        </g>
                        <g transform="matrix(1,0,0,1,19424,-3384)">
                            <path d="M5640.32,5091.8L5597,5098" style="fill:none;stroke:rgb(241,135,109);stroke-width:33.33px;"/>
                        </g>
                    </g>
                    <g transform="matrix(1,0,0,-1,695,4200.23)">
                        <g transform="matrix(1.87517,0,0,1.90155,14215.5,-7921.5)">
                            <path d="M5951.39,5042.02C5914.42,5029.61 5878.86,5028.49 5844,5033C5844,5033 5843.48,5083.96 5843.19,5111.86C5843.14,5117.64 5845.46,5123.19 5849.63,5127.24C5853.8,5131.29 5859.46,5133.49 5865.32,5133.35C5892.94,5132.71 5922.16,5115.61 5951.39,5107.73L5951.39,5042.02Z" style="fill:rgb(241,135,109);"/>
                        </g>
                        <g transform="matrix(0.815163,0,0,0.899207,20427.4,-2880.24)">
                            <path d="M5844,5056L5712,5056" style="fill:none;stroke:rgb(241,135,109);stroke-width:38.84px;"/>
                        </g>
                        <g transform="matrix(0.900289,0,0,1.42913,19929.9,-5434.56)">
                            <path d="M5844,5056L5712,5056" style="fill:none;stroke:rgb(241,135,109);stroke-width:27.91px;"/>
                        </g>
                        <g transform="matrix(0.961002,0,0,1.5255,19575.1,-6005.14)">
                            <path d="M5844,5056L5712,5056" style="fill:none;stroke:rgb(241,135,109);stroke-width:26.15px;"/>
                        </g>
                        <g transform="matrix(1.06982,0,0,1.69825,18939.1,-6836.89)">
                            <path d="M5844,5056L5712,5056" style="fill:none;stroke:rgb(241,135,109);stroke-width:23.49px;"/>
                        </g>
                        <g transform="matrix(1.22496,0,0,1.22496,18085.1,-4497.87)">
                            <path d="M5938.89,5137.66C5934.27,5158.86 5792.81,5182.57 5730.92,5174.69" style="fill:none;stroke:rgb(241,135,109);stroke-width:27.21px;"/>
                        </g>
                        <g transform="matrix(1,0,0,1,19424,-3384)">
                            <path d="M5648.33,5175.1L5605,5186" style="fill:none;stroke:rgb(241,135,109);stroke-width:33.33px;"/>
                        </g>
                        <g transform="matrix(1,0,0,1,19424,-3384)">
                            <path d="M5625.95,5133.45L5579,5145" style="fill:none;stroke:rgb(241,135,109);stroke-width:33.33px;"/>
                        </g>
                        <g transform="matrix(1,0,0,1,19424,-3384)">
                            <path d="M5640.32,5091.8L5597,5098" style="fill:none;stroke:rgb(241,135,109);stroke-width:33.33px;"/>
                        </g>
                    </g>
                    <g transform="matrix(1,0,0,1,444.465,225.246)">
                        <g>
                            <g transform="matrix(1,0,0,1,19337,-3395.5)">
                                <path d="M6712,4328C6712,4328 6740.51,4363.9 6672.24,4483C6655.26,4512.63 6722.41,4534.89 6756,4518C6787.93,4501.95 6712,4328 6712,4328Z" style="fill:rgb(241,135,109);"/>
                            </g>
                            <g transform="matrix(1,0,0,1,19349,-3398)">
                                <path d="M6886.36,4647C6833.74,4646.67 6711,4674.24 6711,4622.03C6685.58,4464.97 6706,4329 6675,4126.98C6675,4074.56 6749.56,4090 6801.98,4090L7051.03,4090C7103.44,4090 7146,4132.56 7146,4184.98L7159,4519.03C7231,4795.05 7315,4709 7175,4832C7120.22,4880.13 6984.8,4904.56 6970,4865C6917.05,4723.49 6886.36,4647 6886.36,4647Z" style="fill:rgb(241,135,109);"/>
                            </g>
                        </g>
                        <g transform="matrix(1,0,0,1,19356,-3390)">
                            <path d="M6726,4343C6726,4343 6759,4317 6808,4343" style="fill:none;stroke:black;stroke-width:16.67px;stroke-linecap:butt;"/>
                        </g>
                        <g transform="matrix(1,0,0,1,19349,-3398)">
                            <path d="M6743.8,4232.36C6727.06,4219.83 6712.66,4213.57 6708,4211.53C6668.47,4194.3 6672.41,4176 6672.41,4176C6672.41,4176 6664,4144 6668.46,4114C6672.92,4084 6684.71,4062.48 6721,4044C6752.42,4028 6843.45,3975 6939.45,3985C7035.45,3995 7147,4006 7177,4050C7207,4094 7199,4286.5 7192,4345C7185,4403.5 7177.25,4414.38 7172.5,4507.96C7170.38,4549.67 7046.57,4543 7094,4462C7163.09,4344 7103,4308 7054,4309C7005,4310 7005,4462.58 7005,4462.58C6993.97,4462.34 6939.45,4461.18 6939.45,4461.18C6939.45,4461.18 6921.98,4380.14 6921,4318C6920.24,4270.01 6843.08,4251.62 6790,4241.87C6787.36,4245.81 6787.06,4256.53 6790,4260C6801,4273 6824,4283 6824,4283C6769.63,4291.95 6752.72,4258.55 6743.8,4232.36Z" style="fill:rgb(38,30,11);"/>
                        </g>
                    </g>
                </g>
            </g>
        </g>
    </g>
</svg>
